<svg style="display: none;" aria-hidden="true" xmlns="http://www.w3.org/2000/svg" xmlns:xlink="http://www.w3.org/1999/xlink"><symbol viewBox="0 0 24 24" id="activity"><path d="M22 12H18L15 21L9 3L6 12H2" stroke-width="2" stroke-linecap="round" stroke-linejoin="round"/></symbol><symbol viewBox="0 0 6 9" id="arrow"><path stroke-linecap="round" d="M0.835 7.874L4.317 4.392"/><path transform="scale(1 -1) rotate(-45 .172 -1.11)" stroke-linecap="round" d="M0.5 -0.5L5.424 -0.5"/></symbol><symbol viewBox="0 0 20 19" id="arrow-right"><path d="M4.16663 9.5H15.8333M10 3.95833L15.8333 9.5 10 15.0417" stroke-width="2" stroke-linecap="round" stroke-linejoin="round"/></symbol><symbol viewBox="0 0 24 24" id="award"><path d="M12 15C15.866 15 19 11.866 19 8C19 4.13401 15.866 1 12 1C8.13401 1 5 4.13401 5 8C5 11.866 8.13401 15 12 15Z" stroke-width="2" stroke-linecap="round" stroke-linejoin="round"/><path d="M8.21 13.89L7 23L12 20L17 23L15.79 13.88" stroke-width="2" stroke-linecap="round" stroke-linejoin="round"/></symbol><symbol viewBox="0 0 24 24" id="bell"><path d="M18 8C18 6.4087 17.3679 4.88258 16.2426 3.75736 15.1174 2.63214 13.5913 2 12 2 10.4087 2 8.88258 2.63214 7.75736 3.75736 6.63214 4.88258 6 6.4087 6 8 6 15 3 17 3 17H21C21 17 18 15 18 8zM13.73 21C13.5542 21.3031 13.3018 21.5547 12.9982 21.7295 12.6946 21.9044 12.3504 21.9965 12 21.9965 11.6496 21.9965 11.3054 21.9044 11.0018 21.7295 10.6982 21.5547 10.4458 21.3031 10.27 21" stroke-width="2" stroke-linecap="round" stroke-linejoin="round"/></symbol><symbol viewBox="0 0 24 24" id="briefcase"><path d="M20 7H4C2.89543 7 2 7.89543 2 9V19C2 20.1046 2.89543 21 4 21H20C21.1046 21 22 20.1046 22 19V9C22 7.89543 21.1046 7 20 7Z" stroke-width="2" stroke-linecap="round" stroke-linejoin="round"/><path d="M16 21V5C16 4.46957 15.7893 3.96086 15.4142 3.58579C15.0391 3.21071 14.5304 3 14 3H10C9.46957 3 8.96086 3.21071 8.58579 3.58579C8.21071 3.96086 8 4.46957 8 5V21" stroke-width="2" stroke-linecap="round" stroke-linejoin="round"/></symbol><symbol viewBox="0 0 18 18" id="crosshair"><g clip-path="url(#ga)" stroke-width="2" stroke-linecap="round" stroke-linejoin="round"><path d="M9 16.5C13.1421 16.5 16.5 13.1421 16.5 9 16.5 4.85786 13.1421 1.5 9 1.5 4.85786 1.5 1.5 4.85786 1.5 9 1.5 13.1421 4.85786 16.5 9 16.5zM16.5 9H13.5M4.5 9H1.5M9 4.5V1.5M9 16.5V13.5"/></g><defs><clipPath id="ga"><path d="M0 0H18V18H0z"/></clipPath></defs></symbol><symbol viewBox="0 0 19 19" id="dislike"><g clip-path="url(#ha)"><path d="M13.4582 1.58329H15.572C16.02 1.57537 16.4554 1.73223 16.7954 2.02411C17.1355 2.31598 17.3565 2.72255 17.4166 3.16663V8.70829C17.3565 9.15237 17.1355 9.55894 16.7954 9.85081C16.4554 10.1427 16.02 10.2996 15.572 10.2916H13.4582M7.91657 11.875V15.0416C7.91657 15.6715 8.16679 16.2756 8.61219 16.721C9.05759 17.1664 9.66168 17.4166 10.2916 17.4166L13.4582 10.2916V1.58329H4.52824C4.14639 1.57898 3.77585 1.71281 3.48489 1.96012C3.19393 2.20744 3.00216 2.55158 2.9449 2.92913L1.8524 10.0541C1.81796 10.2811 1.83326 10.5128 1.89726 10.7332C1.96125 10.9536 2.0724 11.1575 2.22301 11.3307C2.37362 11.5039 2.56009 11.6423 2.76949 11.7362C2.97889 11.8302 3.20623 11.8776 3.43574 11.875H7.91657Z" stroke-width="2" stroke-linecap="round" stroke-linejoin="round"/></g><defs><clipPath id="ha"><path d="M0 0H19V19H0z"/></clipPath></defs></symbol><symbol viewBox="0 0 24 24" id="feather"><path d="M20.24 12.24C21.3658 11.1142 21.9983 9.58719 21.9983 7.995 21.9983 6.40282 21.3658 4.87585 20.24 3.75 19.1142 2.62416 17.5872 1.99166 15.995 1.99166 14.4028 1.99166 12.8758 2.62416 11.75 3.75L5 10.5V19H13.5L20.24 12.24zM16 8L2 22M17.5 15H9" stroke-width="2" stroke-linecap="round" stroke-linejoin="round"/></symbol><symbol viewBox="0 0 24 24" id="file-text"><path d="M14 2H6C5.46957 2 4.96086 2.21071 4.58579 2.58579C4.21071 2.96086 4 3.46957 4 4V20C4 20.5304 4.21071 21.0391 4.58579 21.4142C4.96086 21.7893 5.46957 22 6 22H18C18.5304 22 19.0391 21.7893 19.4142 21.4142C19.7893 21.0391 20 20.5304 20 20V8L14 2Z" stroke-width="2" stroke-linecap="round" stroke-linejoin="round"/><path d="M14 2V8H20M16 13H8M16 17H8M10 9H9 8" stroke-width="2" stroke-linecap="round" stroke-linejoin="round"/></symbol><symbol viewBox="0 0 24 24" id="gift"><path d="M20 12V22H4V12M22 7H2V12H22V7zM12 22V7M12 7H7.5C6.83696 7 6.20107 6.73661 5.73223 6.26777 5.26339 5.79893 5 5.16304 5 4.5 5 3.83696 5.26339 3.20107 5.73223 2.73223 6.20107 2.26339 6.83696 2 7.5 2 11 2 12 7 12 7zM12 7H16.5C17.163 7 17.7989 6.73661 18.2678 6.26777 18.7366 5.79893 19 5.16304 19 4.5 19 3.83696 18.7366 3.20107 18.2678 2.73223 17.7989 2.26339 17.163 2 16.5 2 13 2 12 7 12 7z" stroke-width="2" stroke-linecap="round" stroke-linejoin="round"/></symbol><symbol viewBox="0 0 24 24" id="globe"><path d="M12 22C17.5228 22 22 17.5228 22 12 22 6.47715 17.5228 2 12 2 6.47715 2 2 6.47715 2 12 2 17.5228 6.47715 22 12 22zM2 12H22" stroke-width="2" stroke-linecap="round" stroke-linejoin="round"/><path d="M12 2C14.5013 4.73835 15.9228 8.29203 16 12C15.9228 15.708 14.5013 19.2616 12 22C9.49872 19.2616 8.07725 15.708 8 12C8.07725 8.29203 9.49872 4.73835 12 2V2Z" stroke-width="2" stroke-linecap="round" stroke-linejoin="round"/></symbol><symbol viewBox="0 0 24 24" id="home"><path d="M3 9L12 2L21 9V20C21 20.5304 20.7893 21.0391 20.4142 21.4142C20.0391 21.7893 19.5304 22 19 22H5C4.46957 22 3.96086 21.7893 3.58579 21.4142C3.21071 21.0391 3 20.5304 3 20V9Z" stroke-width="2" stroke-linecap="round" stroke-linejoin="round"/><path d="M9 22V12H15V22" stroke-width="2" stroke-linecap="round" stroke-linejoin="round"/></symbol><symbol viewBox="0 0 20 19" id="like"><g clip-path="url(#na)"><path d="M5.83341 17.4167H3.33341C2.89139 17.4167 2.46746 17.2499 2.1549 16.953C1.84234 16.656 1.66675 16.2533 1.66675 15.8334V10.2917C1.66675 9.87178 1.84234 9.46905 2.1549 9.17212C2.46746 8.87519 2.89139 8.70837 3.33341 8.70837H5.83341M11.6667 7.12504V3.95837C11.6667 3.32848 11.4034 2.72439 10.9345 2.279C10.4657 1.8336 9.82979 1.58337 9.16675 1.58337L5.83341 8.70837V17.4167H15.2334C15.6354 17.421 16.0254 17.2872 16.3317 17.0399C16.6379 16.7926 16.8398 16.4484 16.9001 16.0709L18.0501 8.94587C18.0863 8.71895 18.0702 8.48725 18.0029 8.26682C17.9355 8.0464 17.8185 7.84252 17.66 7.66932C17.5014 7.49612 17.3051 7.35774 17.0847 7.26375C16.8643 7.16977 16.625 7.12244 16.3834 7.12504H11.6667Z" stroke-width="2" stroke-linecap="round" stroke-linejoin="round"/></g><defs><clipPath id="na"><path d="M0 0H20V19H0z"/></clipPath></defs></symbol><symbol viewBox="0 0 24 24" id="message"><path d="M21 11.5C21.0034 12.8199 20.6951 14.1219 20.1 15.3C19.3944 16.7117 18.3098 17.8992 16.9674 18.7293C15.6251 19.5594 14.0782 19.9994 12.5 20C11.1801 20.0034 9.87812 19.6951 8.7 19.1L3 21L4.9 15.3C4.30493 14.1219 3.99656 12.8199 4 11.5C4.00061 9.92176 4.44061 8.37485 5.27072 7.03255C6.10083 5.69025 7.28825 4.60557 8.7 3.9C9.87812 3.30493 11.1801 2.99656 12.5 3H13C15.0843 3.11499 17.053 3.99476 18.5291 5.47086C20.0052 6.94695 20.885 8.91565 21 11V11.5Z" stroke-width="2" stroke-linecap="round" stroke-linejoin="round"/></symbol><symbol viewBox="0 0 24 24" id="more"><g clip-path="url(#pa)"><path d="M6 10C4.9 10 4 10.9 4 12C4 13.1 4.9 14 6 14C7.1 14 8 13.1 8 12C8 10.9 7.1 10 6 10ZM18 10C16.9 10 16 10.9 16 12C16 13.1 16.9 14 18 14C19.1 14 20 13.1 20 12C20 10.9 19.1 10 18 10ZM12 10C10.9 10 10 10.9 10 12C10 13.1 10.9 14 12 14C13.1 14 14 13.1 14 12C14 10.9 13.1 10 12 10Z"/></g><defs><clipPath id="pa"><path d="M0 0H24V24H0z"/></clipPath></defs></symbol><symbol viewBox="0 0 24 24" id="play"><path d="M12 22C17.5228 22 22 17.5228 22 12C22 6.47715 17.5228 2 12 2C6.47715 2 2 6.47715 2 12C2 17.5228 6.47715 22 12 22Z" stroke-width="2" stroke-linecap="round" stroke-linejoin="round"/><path d="M10 8L16 12L10 16V8Z" stroke-width="2" stroke-linecap="round" stroke-linejoin="round"/></symbol><symbol viewBox="0 0 17 16" id="pocket"><g clip-path="url(#ra)" stroke-width="2" stroke-linecap="round" stroke-linejoin="round"><path d="M3.10447 2H13.9441C14.3035 2 14.6481 2.14048 14.9022 2.39052C15.1563 2.64057 15.2991 2.97971 15.2991 3.33333V7.33333C15.2991 9.10144 14.5853 10.7971 13.3148 12.0474C12.0443 13.2976 10.3211 14 8.52429 14C7.63461 14 6.75365 13.8276 5.93169 13.4925C5.10974 13.1575 4.36289 12.6664 3.7338 12.0474C2.46328 10.7971 1.74951 9.10144 1.74951 7.33333V3.33333C1.74951 2.97971 1.89227 2.64057 2.14637 2.39052C2.40047 2.14048 2.74511 2 3.10447 2V2Z"/><path d="M5.81439 6.66666L8.5243 9.33332L11.2342 6.66666"/></g><defs><clipPath id="ra"><path transform="translate(.395)" d="M0 0H16.259V16H0z"/></clipPath></defs></symbol><symbol viewBox="0 0 18 18" id="search"><path d="M8.25 14.25C11.5637 14.25 14.25 11.5637 14.25 8.25 14.25 4.93629 11.5637 2.25 8.25 2.25 4.93629 2.25 2.25 4.93629 2.25 8.25 2.25 11.5637 4.93629 14.25 8.25 14.25zM15.75 15.75L12.4875 12.4875" stroke-width="2" stroke-linecap="round" stroke-linejoin="round"/></symbol><symbol viewBox="0 0 24 24" id="settings"><g clip-path="url(#ta)" stroke-width="2" stroke-linecap="round" stroke-linejoin="round"><path d="M12 15C13.6569 15 15 13.6569 15 12C15 10.3431 13.6569 9 12 9C10.3431 9 9 10.3431 9 12C9 13.6569 10.3431 15 12 15Z"/><path d="M19.4 15C19.2669 15.3016 19.2272 15.6362 19.286 15.9606C19.3448 16.285 19.4995 16.5843 19.73 16.82L19.79 16.88C19.976 17.0657 20.1235 17.2863 20.2241 17.5291C20.3248 17.7719 20.3766 18.0322 20.3766 18.295C20.3766 18.5578 20.3248 18.8181 20.2241 19.0609C20.1235 19.3037 19.976 19.5243 19.79 19.71C19.6043 19.896 19.3837 20.0435 19.1409 20.1441C18.8981 20.2448 18.6378 20.2966 18.375 20.2966C18.1122 20.2966 17.8519 20.2448 17.6091 20.1441C17.3663 20.0435 17.1457 19.896 16.96 19.71L16.9 19.65C16.6643 19.4195 16.365 19.2648 16.0406 19.206C15.7162 19.1472 15.3816 19.1869 15.08 19.32C14.7842 19.4468 14.532 19.6572 14.3543 19.9255C14.1766 20.1938 14.0813 20.5082 14.08 20.83V21C14.08 21.5304 13.8693 22.0391 13.4942 22.4142C13.1191 22.7893 12.6104 23 12.08 23C11.5496 23 11.0409 22.7893 10.6658 22.4142C10.2907 22.0391 10.08 21.5304 10.08 21V20.91C10.0723 20.579 9.96512 20.258 9.77251 19.9887C9.5799 19.7194 9.31074 19.5143 9 19.4C8.69838 19.2669 8.36381 19.2272 8.03941 19.286C7.71502 19.3448 7.41568 19.4995 7.18 19.73L7.12 19.79C6.93425 19.976 6.71368 20.1235 6.47088 20.2241C6.22808 20.3248 5.96783 20.3766 5.705 20.3766C5.44217 20.3766 5.18192 20.3248 4.93912 20.2241C4.69632 20.1235 4.47575 19.976 4.29 19.79C4.10405 19.6043 3.95653 19.3837 3.85588 19.1409C3.75523 18.8981 3.70343 18.6378 3.70343 18.375C3.70343 18.1122 3.75523 17.8519 3.85588 17.6091C3.95653 17.3663 4.10405 17.1457 4.29 16.96L4.35 16.9C4.58054 16.6643 4.73519 16.365 4.794 16.0406C4.85282 15.7162 4.81312 15.3816 4.68 15.08C4.55324 14.7842 4.34276 14.532 4.07447 14.3543C3.80618 14.1766 3.49179 14.0813 3.17 14.08H3C2.46957 14.08 1.96086 13.8693 1.58579 13.4942C1.21071 13.1191 1 12.6104 1 12.08C1 11.5496 1.21071 11.0409 1.58579 10.6658C1.96086 10.2907 2.46957 10.08 3 10.08H3.09C3.42099 10.0723 3.742 9.96512 4.0113 9.77251C4.28059 9.5799 4.48572 9.31074 4.6 9C4.73312 8.69838 4.77282 8.36381 4.714 8.03941C4.65519 7.71502 4.50054 7.41568 4.27 7.18L4.21 7.12C4.02405 6.93425 3.87653 6.71368 3.77588 6.47088C3.67523 6.22808 3.62343 5.96783 3.62343 5.705C3.62343 5.44217 3.67523 5.18192 3.77588 4.93912C3.87653 4.69632 4.02405 4.47575 4.21 4.29C4.39575 4.10405 4.61632 3.95653 4.85912 3.85588C5.10192 3.75523 5.36217 3.70343 5.625 3.70343C5.88783 3.70343 6.14808 3.75523 6.39088 3.85588C6.63368 3.95653 6.85425 4.10405 7.04 4.29L7.1 4.35C7.33568 4.58054 7.63502 4.73519 7.95941 4.794C8.28381 4.85282 8.61838 4.81312 8.92 4.68H9C9.29577 4.55324 9.54802 4.34276 9.72569 4.07447C9.90337 3.80618 9.99872 3.49179 10 3.17V3C10 2.46957 10.2107 1.96086 10.5858 1.58579C10.9609 1.21071 11.4696 1 12 1C12.5304 1 13.0391 1.21071 13.4142 1.58579C13.7893 1.96086 14 2.46957 14 3V3.09C14.0013 3.41179 14.0966 3.72618 14.2743 3.99447C14.452 4.26276 14.7042 4.47324 15 4.6C15.3016 4.73312 15.6362 4.77282 15.9606 4.714C16.285 4.65519 16.5843 4.50054 16.82 4.27L16.88 4.21C17.0657 4.02405 17.2863 3.87653 17.5291 3.77588C17.7719 3.67523 18.0322 3.62343 18.295 3.62343C18.5578 3.62343 18.8181 3.67523 19.0609 3.77588C19.3037 3.87653 19.5243 4.02405 19.71 4.21C19.896 4.39575 20.0435 4.61632 20.1441 4.85912C20.2448 5.10192 20.2966 5.36217 20.2966 5.625C20.2966 5.88783 20.2448 6.14808 20.1441 6.39088C20.0435 6.63368 19.896 6.85425 19.71 7.04L19.65 7.1C19.4195 7.33568 19.2648 7.63502 19.206 7.95941C19.1472 8.28381 19.1869 8.61838 19.32 8.92V9C19.4468 9.29577 19.6572 9.54802 19.9255 9.72569C20.1938 9.90337 20.5082 9.99872 20.83 10H21C21.5304 10 22.0391 10.2107 22.4142 10.5858C22.7893 10.9609 23 11.4696 23 12C23 12.5304 22.7893 13.0391 22.4142 13.4142C22.0391 13.7893 21.5304 14 21 14H20.91C20.5882 14.0013 20.2738 14.0966 20.0055 14.2743C19.7372 14.452 19.5268 14.7042 19.4 15V15Z"/></g><defs><clipPath id="ta"><path d="M0 0H24V24H0z"/></clipPath></defs></symbol><symbol viewBox="0 0 17 16" id="share"><path d="M2.80719 8V13.3333C2.80719 13.687 2.94994 14.0261 3.20405 14.2761 3.45815 14.5262 3.80279 14.6667 4.16214 14.6667H12.2919C12.6512 14.6667 12.9959 14.5262 13.25 14.2761 13.5041 14.0261 13.6468 13.687 13.6468 13.3333V8M10.9369 4.00001L8.227 1.33334 5.51709 4.00001M8.22699 1.33334V10" stroke-width="2" stroke-linecap="round" stroke-linejoin="round"/></symbol><symbol viewBox="0 0 24 24" id="shield"><path d="M12 22C12 22 20 18 20 12V5L12 2L4 5V12C4 18 12 22 12 22Z" stroke-width="2" stroke-linecap="round" stroke-linejoin="round"/><path d="M12 9V15M15 12L9 12" stroke-width="2"/></symbol><symbol viewBox="0 0 52 52" id="sun"><path d="M26 36.8333C31.983 36.8333 36.8333 31.9831 36.8333 26 36.8333 20.0169 31.983 15.1667 26 15.1667 20.0169 15.1667 15.1666 20.0169 15.1666 26 15.1666 31.9831 20.0169 36.8333 26 36.8333zM26 2.16666V6.5M26 45.5V49.8333M9.14331 9.14333L12.22 12.22M39.78 39.78L42.8567 42.8567M2.16663 26H6.49996M45.5 26H49.8333M9.14331 42.8567L12.22 39.78M39.78 12.22L42.8567 9.14333" stroke-width="2" stroke-linecap="round" stroke-linejoin="round"/></symbol><symbol viewBox="0 0 20 20" id="trash"><path d="M2.5 5H4.16667 17.5M6.66675 4.99996V3.33329C6.66675 2.89127 6.84234 2.46734 7.1549 2.15478 7.46746 1.84222 7.89139 1.66663 8.33341 1.66663H11.6667C12.1088 1.66663 12.5327 1.84222 12.8453 2.15478 13.1578 2.46734 13.3334 2.89127 13.3334 3.33329V4.99996M15.8334 4.99996V16.6666C15.8334 17.1087 15.6578 17.5326 15.3453 17.8451 15.0327 18.1577 14.6088 18.3333 14.1667 18.3333H5.83341C5.39139 18.3333 4.96746 18.1577 4.6549 17.8451 4.34234 17.5326 4.16675 17.1087 4.16675 16.6666V4.99996H15.8334z" stroke-width="2" stroke-linecap="round" stroke-linejoin="round"/></symbol><symbol viewBox="0 0 24 24" id="user"><path d="M20 21V19C20 17.9391 19.5786 16.9217 18.8284 16.1716 18.0783 15.4214 17.0609 15 16 15H8C6.93913 15 5.92172 15.4214 5.17157 16.1716 4.42143 16.9217 4 17.9391 4 19V21M12 11C14.2091 11 16 9.20914 16 7 16 4.79086 14.2091 3 12 3 9.79086 3 8 4.79086 8 7 8 9.20914 9.79086 11 12 11z" stroke-width="2" stroke-linecap="round" stroke-linejoin="round"/></symbol></svg>